<svg xmlns="http://www.w3.org/2000/svg" xmlns:xlink="http://www.w3.org/1999/xlink" width="720" zoomAndPan="magnify" viewBox="0 0 540 540.000001" height="720" preserveAspectRatio="xMidYMid meet" version="1.0"><defs><clipPath id="ebf02f781f"><path d="M 179.6875 59.648438 L 262.335938 59.648438 L 262.335938 115.824219 L 179.6875 115.824219 Z M 179.6875 59.648438 " clip-rule="nonzero"/></clipPath><clipPath id="1ce832e2b2"><path d="M 203.394531 42.125 L 266.585938 64.621094 L 241.082031 136.269531 L 177.890625 113.777344 Z M 203.394531 42.125 " clip-rule="nonzero"/></clipPath><clipPath id="a79c70358e"><path d="M 203.394531 42.125 L 266.585938 64.621094 L 241.082031 136.269531 L 177.890625 113.777344 Z M 203.394531 42.125 " clip-rule="nonzero"/></clipPath><clipPath id="89906e3783"><path d="M 167.351562 169.007812 L 240.175781 169.007812 L 240.175781 246.503906 L 167.351562 246.503906 Z M 167.351562 169.007812 " clip-rule="nonzero"/></clipPath><clipPath id="ed5ac31bee"><path d="M 170.640625 166.394531 L 240.96875 169.558594 L 237.375 249.394531 L 167.046875 246.230469 Z M 170.640625 166.394531 " clip-rule="nonzero"/></clipPath><clipPath id="0fc1497632"><path d="M 170.640625 166.394531 L 240.96875 169.558594 L 237.375 249.394531 L 167.046875 246.230469 Z M 170.640625 166.394531 " clip-rule="nonzero"/></clipPath><clipPath id="2f3e1bae25"><path d="M 32.839844 50.1875 L 57.511719 50.1875 L 57.511719 140.261719 L 32.839844 140.261719 Z M 32.839844 50.1875 " clip-rule="nonzero"/></clipPath><clipPath id="98e1fc3025"><path d="M -4.367188 82.175781 L 49.792969 42.152344 L 95.210938 103.605469 L 41.050781 143.632812 Z M -4.367188 82.175781 " clip-rule="nonzero"/></clipPath><clipPath id="e34ebda621"><path d="M -4.367188 82.175781 L 49.792969 42.152344 L 95.210938 103.605469 L 41.050781 143.632812 Z M -4.367188 82.175781 " clip-rule="nonzero"/></clipPath><clipPath id="8163f0fb1d"><path d="M 28.046875 185.296875 L 126.625 185.296875 L 126.625 230.8125 L 28.046875 230.8125 Z M 28.046875 185.296875 " clip-rule="nonzero"/></clipPath><clipPath id="81144aca72"><path d="M 84.339844 261.738281 L 20.871094 221.816406 L 66.101562 149.914062 L 129.566406 189.835938 Z M 84.339844 261.738281 " clip-rule="nonzero"/></clipPath><clipPath id="0f7a50df6f"><path d="M 84.339844 261.738281 L 20.871094 221.816406 L 66.101562 149.914062 L 129.566406 189.835938 Z M 84.339844 261.738281 " clip-rule="nonzero"/></clipPath><clipPath id="0cb04ab6c6"><path d="M 112.371094 4.074219 L 185.554688 4.074219 L 185.554688 79.171875 L 112.371094 79.171875 Z M 112.371094 4.074219 " clip-rule="nonzero"/></clipPath><clipPath id="2eecbd089b"><path d="M 191.285156 11.683594 L 184.074219 80.71875 L 105.75 72.535156 L 112.960938 3.5 Z M 191.285156 11.683594 " clip-rule="nonzero"/></clipPath><clipPath id="bc4cac3a14"><path d="M 191.285156 11.683594 L 184.074219 80.71875 L 105.75 72.535156 L 112.960938 3.5 Z M 191.285156 11.683594 " clip-rule="nonzero"/></clipPath><clipPath id="47115b9b93"><path d="M 88.175781 108.757812 L 170.226562 108.757812 L 170.226562 173.078125 L 88.175781 173.078125 Z M 88.175781 108.757812 " clip-rule="nonzero"/></clipPath><clipPath id="e9f3c113eb"><path d="M 166.210938 103.183594 L 171.480469 172.394531 L 92.960938 178.375 L 87.6875 109.164062 Z M 166.210938 103.183594 " clip-rule="nonzero"/></clipPath><clipPath id="42bfd1b95d"><path d="M 166.210938 103.183594 L 171.480469 172.394531 L 92.960938 178.375 L 87.6875 109.164062 Z M 166.210938 103.183594 " clip-rule="nonzero"/></clipPath><clipPath id="5d67361bb9"><path d="M 449.1875 59.648438 L 531.835938 59.648438 L 531.835938 115.824219 L 449.1875 115.824219 Z M 449.1875 59.648438 " clip-rule="nonzero"/></clipPath><clipPath id="5eaeedfeb8"><path d="M 472.894531 42.125 L 536.089844 64.621094 L 510.582031 136.269531 L 447.390625 113.777344 Z M 472.894531 42.125 " clip-rule="nonzero"/></clipPath><clipPath id="e1553d202e"><path d="M 472.894531 42.125 L 536.089844 64.621094 L 510.582031 136.269531 L 447.390625 113.777344 Z M 472.894531 42.125 " clip-rule="nonzero"/></clipPath><clipPath id="7470499d39"><path d="M 436.851562 169.007812 L 509.675781 169.007812 L 509.675781 246.503906 L 436.851562 246.503906 Z M 436.851562 169.007812 " clip-rule="nonzero"/></clipPath><clipPath id="218d0c5129"><path d="M 440.140625 166.394531 L 510.46875 169.558594 L 506.875 249.394531 L 436.546875 246.230469 Z M 440.140625 166.394531 " clip-rule="nonzero"/></clipPath><clipPath id="a0e17f4472"><path d="M 440.140625 166.394531 L 510.46875 169.558594 L 506.875 249.394531 L 436.546875 246.230469 Z M 440.140625 166.394531 " clip-rule="nonzero"/></clipPath><clipPath id="7dd7379604"><path d="M 302.339844 50.1875 L 327.015625 50.1875 L 327.015625 140.261719 L 302.339844 140.261719 Z M 302.339844 50.1875 " clip-rule="nonzero"/></clipPath><clipPath id="bd306939ed"><path d="M 265.136719 82.175781 L 319.296875 42.152344 L 364.710938 103.605469 L 310.550781 143.632812 Z M 265.136719 82.175781 " clip-rule="nonzero"/></clipPath><clipPath id="42b0837d0e"><path d="M 265.136719 82.175781 L 319.296875 42.152344 L 364.710938 103.605469 L 310.550781 143.632812 Z M 265.136719 82.175781 " clip-rule="nonzero"/></clipPath><clipPath id="8a33cb2e6e"><path d="M 297.550781 185.296875 L 396.125 185.296875 L 396.125 230.8125 L 297.550781 230.8125 Z M 297.550781 185.296875 " clip-rule="nonzero"/></clipPath><clipPath id="037c33e69f"><path d="M 353.839844 261.738281 L 290.371094 221.816406 L 335.601562 149.914062 L 399.066406 189.835938 Z M 353.839844 261.738281 " clip-rule="nonzero"/></clipPath><clipPath id="38cd8ee635"><path d="M 353.839844 261.738281 L 290.371094 221.816406 L 335.601562 149.914062 L 399.066406 189.835938 Z M 353.839844 261.738281 " clip-rule="nonzero"/></clipPath><clipPath id="aec1664762"><path d="M 381.871094 4.074219 L 455 4.074219 L 455 79.171875 L 381.871094 79.171875 Z M 381.871094 4.074219 " clip-rule="nonzero"/></clipPath><clipPath id="4f0e406a5e"><path d="M 460.785156 11.683594 L 453.574219 80.71875 L 375.25 72.535156 L 382.460938 3.5 Z M 460.785156 11.683594 " clip-rule="nonzero"/></clipPath><clipPath id="a348081aa2"><path d="M 460.785156 11.683594 L 453.574219 80.71875 L 375.25 72.535156 L 382.460938 3.5 Z M 460.785156 11.683594 " clip-rule="nonzero"/></clipPath><clipPath id="611d7d2b4a"><path d="M 357.675781 108.757812 L 439.726562 108.757812 L 439.726562 173.078125 L 357.675781 173.078125 Z M 357.675781 108.757812 " clip-rule="nonzero"/></clipPath><clipPath id="ddd0431ac7"><path d="M 435.710938 103.183594 L 440.980469 172.394531 L 362.460938 178.375 L 357.1875 109.164062 Z M 435.710938 103.183594 " clip-rule="nonzero"/></clipPath><clipPath id="ef5afd1597"><path d="M 435.710938 103.183594 L 440.980469 172.394531 L 362.460938 178.375 L 357.1875 109.164062 Z M 435.710938 103.183594 " clip-rule="nonzero"/></clipPath><clipPath id="f103b72dc8"><path d="M 179.6875 329.152344 L 262.335938 329.152344 L 262.335938 385.328125 L 179.6875 385.328125 Z M 179.6875 329.152344 " clip-rule="nonzero"/></clipPath><clipPath id="999b3a0f58"><path d="M 203.394531 311.628906 L 266.585938 334.121094 L 241.082031 405.773438 L 177.890625 383.277344 Z M 203.394531 311.628906 " clip-rule="nonzero"/></clipPath><clipPath id="26f18b3be5"><path d="M 203.394531 311.628906 L 266.585938 334.121094 L 241.082031 405.773438 L 177.890625 383.277344 Z M 203.394531 311.628906 " clip-rule="nonzero"/></clipPath><clipPath id="1def817579"><path d="M 167.351562 438.507812 L 240.175781 438.507812 L 240.175781 516 L 167.351562 516 Z M 167.351562 438.507812 " clip-rule="nonzero"/></clipPath><clipPath id="b8a5b2455e"><path d="M 170.640625 435.894531 L 240.96875 439.058594 L 237.375 518.894531 L 167.046875 515.730469 Z M 170.640625 435.894531 " clip-rule="nonzero"/></clipPath><clipPath id="8f25049d5d"><path d="M 170.640625 435.894531 L 240.96875 439.058594 L 237.375 518.894531 L 167.046875 515.730469 Z M 170.640625 435.894531 " clip-rule="nonzero"/></clipPath><clipPath id="b1128b36bc"><path d="M 32.839844 319.6875 L 57.511719 319.6875 L 57.511719 409.761719 L 32.839844 409.761719 Z M 32.839844 319.6875 " clip-rule="nonzero"/></clipPath><clipPath id="750f0e8fa2"><path d="M -4.367188 351.679688 L 49.792969 311.652344 L 95.210938 373.105469 L 41.050781 413.132812 Z M -4.367188 351.679688 " clip-rule="nonzero"/></clipPath><clipPath id="e235e94ee3"><path d="M -4.367188 351.679688 L 49.792969 311.652344 L 95.210938 373.105469 L 41.050781 413.132812 Z M -4.367188 351.679688 " clip-rule="nonzero"/></clipPath><clipPath id="6433dac9d6"><path d="M 28.046875 454.796875 L 126.625 454.796875 L 126.625 500.3125 L 28.046875 500.3125 Z M 28.046875 454.796875 " clip-rule="nonzero"/></clipPath><clipPath id="101878be05"><path d="M 84.339844 531.238281 L 20.871094 491.316406 L 66.101562 419.414062 L 129.566406 459.335938 Z M 84.339844 531.238281 " clip-rule="nonzero"/></clipPath><clipPath id="58c8f0a043"><path d="M 84.339844 531.238281 L 20.871094 491.316406 L 66.101562 419.414062 L 129.566406 459.335938 Z M 84.339844 531.238281 " clip-rule="nonzero"/></clipPath><clipPath id="7db9022868"><path d="M 112.371094 273.574219 L 185.554688 273.574219 L 185.554688 348.675781 L 112.371094 348.675781 Z M 112.371094 273.574219 " clip-rule="nonzero"/></clipPath><clipPath id="a4a7358ee4"><path d="M 191.285156 281.183594 L 184.074219 350.21875 L 105.75 342.035156 L 112.960938 273 Z M 191.285156 281.183594 " clip-rule="nonzero"/></clipPath><clipPath id="bc8f7d3e59"><path d="M 191.285156 281.183594 L 184.074219 350.21875 L 105.75 342.035156 L 112.960938 273 Z M 191.285156 281.183594 " clip-rule="nonzero"/></clipPath><clipPath id="360fa46105"><path d="M 88.175781 378.257812 L 170.226562 378.257812 L 170.226562 442.582031 L 88.175781 442.582031 Z M 88.175781 378.257812 " clip-rule="nonzero"/></clipPath><clipPath id="4559409e70"><path d="M 166.210938 372.683594 L 171.480469 441.894531 L 92.960938 447.875 L 87.6875 378.664062 Z M 166.210938 372.683594 " clip-rule="nonzero"/></clipPath><clipPath id="e967508f70"><path d="M 166.210938 372.683594 L 171.480469 441.894531 L 92.960938 447.875 L 87.6875 378.664062 Z M 166.210938 372.683594 " clip-rule="nonzero"/></clipPath><clipPath id="c87a54644f"><path d="M 449.1875 329.152344 L 531.835938 329.152344 L 531.835938 385.328125 L 449.1875 385.328125 Z M 449.1875 329.152344 " clip-rule="nonzero"/></clipPath><clipPath id="a8b053e691"><path d="M 472.894531 311.628906 L 536.089844 334.121094 L 510.582031 405.773438 L 447.390625 383.277344 Z M 472.894531 311.628906 " clip-rule="nonzero"/></clipPath><clipPath id="1bd76c7e21"><path d="M 472.894531 311.628906 L 536.089844 334.121094 L 510.582031 405.773438 L 447.390625 383.277344 Z M 472.894531 311.628906 " clip-rule="nonzero"/></clipPath><clipPath id="89c95bb909"><path d="M 436.851562 438.507812 L 509.675781 438.507812 L 509.675781 516 L 436.851562 516 Z M 436.851562 438.507812 " clip-rule="nonzero"/></clipPath><clipPath id="f9b325eb51"><path d="M 440.140625 435.894531 L 510.46875 439.058594 L 506.875 518.894531 L 436.546875 515.730469 Z M 440.140625 435.894531 " clip-rule="nonzero"/></clipPath><clipPath id="a5b6be91ee"><path d="M 440.140625 435.894531 L 510.46875 439.058594 L 506.875 518.894531 L 436.546875 515.730469 Z M 440.140625 435.894531 " clip-rule="nonzero"/></clipPath><clipPath id="e5081ba525"><path d="M 302.339844 319.6875 L 327.015625 319.6875 L 327.015625 409.761719 L 302.339844 409.761719 Z M 302.339844 319.6875 " clip-rule="nonzero"/></clipPath><clipPath id="c52c4c879c"><path d="M 265.136719 351.679688 L 319.296875 311.652344 L 364.710938 373.105469 L 310.550781 413.132812 Z M 265.136719 351.679688 " clip-rule="nonzero"/></clipPath><clipPath id="75b0768d27"><path d="M 265.136719 351.679688 L 319.296875 311.652344 L 364.710938 373.105469 L 310.550781 413.132812 Z M 265.136719 351.679688 " clip-rule="nonzero"/></clipPath><clipPath id="ae11dab374"><path d="M 297.550781 454.796875 L 396.125 454.796875 L 396.125 500.3125 L 297.550781 500.3125 Z M 297.550781 454.796875 " clip-rule="nonzero"/></clipPath><clipPath id="57b881a3ca"><path d="M 353.839844 531.238281 L 290.371094 491.316406 L 335.601562 419.414062 L 399.066406 459.335938 Z M 353.839844 531.238281 " clip-rule="nonzero"/></clipPath><clipPath id="b9f2a8f26e"><path d="M 353.839844 531.238281 L 290.371094 491.316406 L 335.601562 419.414062 L 399.066406 459.335938 Z M 353.839844 531.238281 " clip-rule="nonzero"/></clipPath><clipPath id="0e7a4d18f4"><path d="M 381.871094 273.574219 L 455 273.574219 L 455 348.675781 L 381.871094 348.675781 Z M 381.871094 273.574219 " clip-rule="nonzero"/></clipPath><clipPath id="a01eb284b8"><path d="M 460.785156 281.183594 L 453.574219 350.21875 L 375.25 342.035156 L 382.460938 273 Z M 460.785156 281.183594 " clip-rule="nonzero"/></clipPath><clipPath id="5f357f7771"><path d="M 460.785156 281.183594 L 453.574219 350.21875 L 375.25 342.035156 L 382.460938 273 Z M 460.785156 281.183594 " clip-rule="nonzero"/></clipPath><clipPath id="b9fa0df6a6"><path d="M 357.675781 378.257812 L 439.726562 378.257812 L 439.726562 442.582031 L 357.675781 442.582031 Z M 357.675781 378.257812 " clip-rule="nonzero"/></clipPath><clipPath id="4018eb0ded"><path d="M 435.710938 372.683594 L 440.980469 441.894531 L 362.460938 447.875 L 357.1875 378.664062 Z M 435.710938 372.683594 " clip-rule="nonzero"/></clipPath><clipPath id="e51be65d35"><path d="M 435.710938 372.683594 L 440.980469 441.894531 L 362.460938 447.875 L 357.1875 378.664062 Z M 435.710938 372.683594 " clip-rule="nonzero"/></clipPath></defs><g clip-path="url(#ebf02f781f)"><g clip-path="url(#1ce832e2b2)"><g clip-path="url(#a79c70358e)"><path fill="#ffff00" d="M 261.867188 73.789062 L 254.449219 61.140625 C 254.070312 60.492188 253.460938 60.035156 252.738281 59.84375 C 252.019531 59.648438 251.253906 59.765625 250.609375 60.128906 L 244.289062 63.832031 L 205.597656 86.566406 L 197.847656 91.109375 L 191.527344 94.8125 C 190.878906 95.195312 190.417969 95.804688 190.226562 96.523438 C 190.113281 96.933594 190.105469 97.363281 190.195312 97.78125 L 180.023438 108.417969 C 179.667969 108.789062 179.59375 109.355469 179.867188 109.808594 L 183.019531 115.195312 C 183.15625 115.4375 183.382812 115.613281 183.625 115.699219 C 183.839844 115.777344 184.074219 115.796875 184.304688 115.734375 L 198.542969 112.03125 C 198.800781 112.253906 199.097656 112.421875 199.425781 112.539062 C 199.496094 112.5625 199.582031 112.59375 199.65625 112.605469 C 200.378906 112.796875 201.140625 112.683594 201.789062 112.316406 L 208.109375 108.617188 L 215.851562 104.082031 L 254.550781 81.335938 L 260.871094 77.632812 C 262.199219 76.835938 262.652344 75.113281 261.867188 73.789062 Z M 246.628906 83.296875 L 238.71875 69.8125 L 244.472656 66.4375 L 252.394531 79.925781 Z M 215.675781 101.460938 L 207.75 87.976562 L 236.726562 70.972656 L 244.652344 84.460938 Z M 207.925781 106.007812 L 200 92.519531 L 205.753906 89.148438 L 213.679688 102.636719 Z M 184.5625 113.25 L 182.292969 109.367188 L 191.304688 99.960938 L 197.171875 109.964844 Z M 200.621094 110.308594 C 200.460938 110.398438 200.320312 110.378906 200.246094 110.367188 C 200.171875 110.34375 200.03125 110.292969 199.941406 110.132812 L 192.519531 97.5 C 192.429688 97.339844 192.449219 97.199219 192.457031 97.125 C 192.484375 97.050781 192.535156 96.910156 192.695312 96.820312 L 198.027344 93.683594 L 205.953125 107.171875 Z M 259.703125 75.625 L 254.375 78.75 L 246.449219 65.261719 L 251.777344 62.136719 C 251.9375 62.050781 252.078125 62.066406 252.152344 62.078125 C 252.167969 62.082031 252.179688 62.089844 252.195312 62.09375 C 252.265625 62.117188 252.375 62.175781 252.457031 62.316406 L 259.878906 74.949219 C 259.96875 75.109375 259.949219 75.246094 259.9375 75.324219 C 259.910156 75.410156 259.847656 75.53125 259.703125 75.625 Z M 259.703125 75.625 " fill-opacity="1" fill-rule="nonzero"/></g></g></g><g clip-path="url(#89906e3783)"><g clip-path="url(#ed5ac31bee)"><g clip-path="url(#0fc1497632)"><path fill="#ffff00" d="M 239.121094 180.226562 L 227.78125 169.800781 C 227.199219 169.265625 226.445312 168.992188 225.664062 169.019531 C 224.878906 169.050781 224.148438 169.398438 223.613281 169.964844 L 218.398438 175.628906 L 186.515625 210.363281 L 180.128906 217.3125 L 174.914062 222.976562 C 174.378906 223.558594 174.105469 224.3125 174.136719 225.09375 C 174.148438 225.542969 174.269531 225.976562 174.492188 226.371094 L 167.542969 240.179688 C 167.296875 240.664062 167.398438 241.257812 167.8125 241.628906 L 172.632812 246.070312 C 172.847656 246.269531 173.128906 246.378906 173.398438 246.390625 C 173.636719 246.402344 173.878906 246.347656 174.09375 246.214844 L 187.257812 238.121094 C 187.585938 238.261719 187.933594 238.339844 188.300781 238.359375 C 188.378906 238.363281 188.476562 238.367188 188.554688 238.351562 C 189.335938 238.324219 190.070312 237.976562 190.605469 237.410156 L 195.820312 231.746094 L 202.203125 224.8125 L 234.089844 190.058594 L 239.300781 184.394531 C 240.394531 183.1875 240.316406 181.316406 239.121094 180.226562 Z M 226.734375 194.464844 L 214.640625 183.351562 L 219.382812 178.191406 L 231.492188 189.304688 Z M 201.21875 222.234375 L 189.113281 211.117188 L 212.996094 185.125 L 225.105469 196.238281 Z M 194.835938 229.183594 L 182.726562 218.070312 L 187.46875 212.910156 L 199.578125 224.023438 Z M 173.585938 243.640625 L 170.113281 240.441406 L 176.273438 228.21875 L 185.246094 236.464844 Z M 188.816406 235.75 C 188.683594 235.886719 188.539062 235.914062 188.457031 235.925781 C 188.378906 235.921875 188.21875 235.914062 188.082031 235.78125 L 176.738281 225.371094 C 176.601562 225.238281 176.574219 225.09375 176.5625 225.011719 C 176.566406 224.933594 176.574219 224.773438 176.707031 224.636719 L 181.097656 219.84375 L 193.207031 230.957031 Z M 237.511719 182.738281 L 233.121094 187.511719 L 221.011719 176.398438 L 225.402344 171.621094 C 225.535156 171.484375 225.679688 171.460938 225.761719 171.449219 C 225.777344 171.449219 225.792969 171.449219 225.808594 171.449219 C 225.886719 171.453125 226.015625 171.476562 226.136719 171.59375 L 237.480469 182.003906 C 237.617188 182.136719 237.644531 182.28125 237.65625 182.359375 C 237.652344 182.457031 237.628906 182.597656 237.511719 182.738281 Z M 237.511719 182.738281 " fill-opacity="1" fill-rule="nonzero"/></g></g></g><g clip-path="url(#2f3e1bae25)"><g clip-path="url(#98e1fc3025)"><g clip-path="url(#e34ebda621)"><path fill="#ffff00" d="M 54.855469 51.1875 L 40.144531 50.273438 C 39.390625 50.226562 38.664062 50.476562 38.101562 50.972656 C 37.539062 51.464844 37.203125 52.164062 37.148438 52.90625 L 36.6875 60.257812 L 33.929688 105.28125 L 33.371094 114.296875 L 32.910156 121.644531 C 32.863281 122.398438 33.113281 123.125 33.605469 123.6875 C 33.882812 124.011719 34.238281 124.261719 34.640625 124.421875 L 37.796875 138.871094 C 37.910156 139.378906 38.339844 139.757812 38.871094 139.785156 L 45.128906 140.179688 C 45.410156 140.199219 45.683594 140.109375 45.894531 139.957031 C 46.078125 139.820312 46.226562 139.632812 46.304688 139.40625 L 51.207031 125.457031 C 51.535156 125.367188 51.84375 125.214844 52.125 125.007812 C 52.183594 124.960938 52.257812 124.90625 52.3125 124.851562 C 52.875 124.355469 53.210938 123.65625 53.265625 122.914062 L 53.726562 115.5625 L 54.292969 106.5625 L 57.042969 61.527344 L 57.5 54.175781 C 57.582031 52.621094 56.402344 51.277344 54.855469 51.1875 Z M 54.230469 69.230469 L 38.546875 68.261719 L 38.960938 61.570312 L 54.65625 62.53125 Z M 52.007812 105.238281 L 36.3125 104.277344 L 38.394531 70.570312 L 54.09375 71.53125 Z M 51.449219 114.25 L 35.753906 113.289062 L 36.171875 106.597656 L 51.867188 107.558594 Z M 44.375 137.800781 L 39.867188 137.515625 L 37.078125 124.722656 L 48.714844 125.441406 Z M 50.9375 122.757812 C 50.917969 122.941406 50.828125 123.046875 50.777344 123.105469 C 50.714844 123.148438 50.589844 123.242188 50.410156 123.226562 L 35.707031 122.324219 C 35.523438 122.308594 35.417969 122.21875 35.359375 122.164062 C 35.316406 122.105469 35.222656 121.980469 35.242188 121.796875 L 35.617188 115.589844 L 51.3125 116.550781 Z M 55.171875 54.023438 L 54.789062 60.21875 L 39.089844 59.257812 L 39.476562 53.0625 C 39.492188 52.878906 39.585938 52.773438 39.636719 52.714844 C 39.648438 52.707031 39.660156 52.699219 39.675781 52.6875 C 39.734375 52.644531 39.84375 52.582031 40.003906 52.597656 L 54.707031 53.496094 C 54.890625 53.511719 54.996094 53.605469 55.050781 53.65625 C 55.105469 53.730469 55.175781 53.847656 55.171875 54.023438 Z M 55.171875 54.023438 " fill-opacity="1" fill-rule="nonzero"/></g></g></g><g clip-path="url(#8163f0fb1d)"><g clip-path="url(#81144aca72)"><g clip-path="url(#0f7a50df6f)"><path fill="#ffff00" d="M 28.253906 212.960938 L 33.269531 228.566406 C 33.523438 229.367188 34.078125 230.015625 34.816406 230.398438 C 35.554688 230.785156 36.417969 230.847656 37.210938 230.601562 L 45.007812 228.101562 L 92.753906 212.71875 L 102.3125 209.644531 L 110.109375 207.144531 C 110.914062 206.890625 111.5625 206.335938 111.945312 205.597656 C 112.167969 205.175781 112.285156 204.710938 112.285156 204.230469 L 125.972656 195.105469 C 126.453125 194.785156 126.671875 194.183594 126.480469 193.625 L 124.355469 186.984375 C 124.261719 186.683594 124.058594 186.4375 123.816406 186.28125 C 123.597656 186.148438 123.347656 186.070312 123.082031 186.082031 L 106.648438 186.652344 C 106.417969 186.347656 106.140625 186.09375 105.808594 185.886719 C 105.738281 185.839844 105.652344 185.785156 105.570312 185.757812 C 104.832031 185.371094 103.96875 185.308594 103.179688 185.550781 L 95.378906 188.050781 L 85.828125 191.113281 L 38.074219 206.507812 L 30.277344 209.007812 C 28.632812 209.554688 27.71875 211.324219 28.253906 212.960938 Z M 47.191406 206.300781 L 52.542969 222.933594 L 45.441406 225.214844 L 40.082031 208.570312 Z M 85.386719 194.015625 L 90.746094 210.65625 L 54.992188 222.15625 L 49.628906 205.511719 Z M 94.945312 190.941406 L 100.308594 207.585938 L 93.207031 209.863281 L 87.84375 193.21875 Z M 122.195312 188.726562 L 123.730469 193.515625 L 111.609375 201.582031 L 107.640625 189.238281 Z M 103.960938 188.027344 C 104.160156 187.96875 104.304688 188.023438 104.386719 188.050781 C 104.457031 188.097656 104.601562 188.1875 104.660156 188.382812 L 109.683594 203.972656 C 109.742188 204.171875 109.6875 204.316406 109.65625 204.398438 C 109.613281 204.46875 109.523438 204.613281 109.324219 204.671875 L 102.746094 206.796875 L 97.382812 190.152344 Z M 31.0625 211.484375 L 37.632812 209.375 L 42.996094 226.015625 L 36.425781 228.128906 C 36.230469 228.183594 36.082031 228.132812 36 228.101562 C 35.988281 228.09375 35.972656 228.082031 35.957031 228.074219 C 35.886719 228.03125 35.78125 227.945312 35.730469 227.769531 L 30.703125 212.179688 C 30.648438 211.984375 30.699219 211.835938 30.730469 211.757812 C 30.785156 211.671875 30.878906 211.550781 31.0625 211.484375 Z M 31.0625 211.484375 " fill-opacity="1" fill-rule="nonzero"/></g></g></g><g clip-path="url(#0cb04ab6c6)"><g clip-path="url(#2eecbd089b)"><g clip-path="url(#bc4cac3a14)"><path fill="#ffff00" d="M 173.683594 78.277344 L 184.605469 67.71875 C 185.164062 67.179688 185.476562 66.453125 185.496094 65.683594 C 185.511719 64.910156 185.210938 64.167969 184.6875 63.609375 L 179.414062 58.148438 L 147.085938 24.746094 L 140.617188 18.054688 L 135.347656 12.597656 C 134.808594 12.035156 134.082031 11.722656 133.308594 11.703125 C 132.871094 11.691406 132.433594 11.785156 132.035156 11.980469 L 118.847656 4.335938 C 118.386719 4.066406 117.792969 4.132812 117.40625 4.515625 L 112.753906 9.003906 C 112.542969 9.203125 112.421875 9.472656 112.394531 9.738281 C 112.367188 9.972656 112.40625 10.214844 112.527344 10.433594 L 119.726562 23.859375 C 119.566406 24.175781 119.46875 24.511719 119.433594 24.871094 C 119.425781 24.949219 119.414062 25.042969 119.421875 25.125 C 119.402344 25.894531 119.703125 26.636719 120.230469 27.195312 L 125.5 32.65625 L 131.953125 39.347656 L 164.296875 72.75 L 169.570312 78.210938 C 170.695312 79.355469 172.539062 79.390625 173.683594 78.277344 Z M 160.394531 65.253906 L 172.035156 54 L 176.835938 58.96875 L 165.191406 70.238281 Z M 134.550781 38.527344 L 146.191406 27.257812 L 170.382812 52.28125 L 158.738281 63.550781 Z M 128.082031 31.835938 L 139.726562 20.566406 L 144.523438 25.535156 L 132.882812 36.804688 Z M 115.089844 10.085938 L 118.441406 6.851562 L 130.109375 13.628906 L 121.472656 21.976562 Z M 121.96875 25.53125 C 121.839844 25.390625 121.824219 25.25 121.816406 25.167969 C 121.824219 25.089844 121.839844 24.933594 121.980469 24.808594 L 132.886719 14.25 C 133.027344 14.121094 133.167969 14.105469 133.25 14.097656 C 133.328125 14.105469 133.484375 14.121094 133.613281 14.261719 L 138.070312 18.863281 L 126.429688 30.132812 Z M 171.304688 76.542969 L 166.859375 71.945312 L 178.503906 60.675781 L 182.949219 65.273438 C 183.078125 65.414062 183.09375 65.558594 183.101562 65.636719 C 183.097656 65.652344 183.097656 65.667969 183.097656 65.683594 C 183.085938 65.761719 183.058594 65.886719 182.9375 66 L 172.03125 76.558594 C 171.890625 76.683594 171.746094 76.703125 171.667969 76.710938 C 171.574219 76.699219 171.433594 76.667969 171.304688 76.542969 Z M 171.304688 76.542969 " fill-opacity="1" fill-rule="nonzero"/></g></g></g><g clip-path="url(#47115b9b93)"><g clip-path="url(#e9f3c113eb)"><g clip-path="url(#42bfd1b95d)"><path fill="#ffff00" d="M 160.820312 171.851562 L 169.675781 159.511719 C 170.132812 158.878906 170.308594 158.109375 170.1875 157.347656 C 170.066406 156.582031 169.636719 155.90625 169.019531 155.449219 L 162.855469 151.023438 L 125.066406 123.953125 L 117.503906 118.53125 L 111.339844 114.101562 C 110.707031 113.644531 109.9375 113.46875 109.175781 113.589844 C 108.742188 113.652344 108.328125 113.828125 107.972656 114.089844 L 93.625 108.933594 C 93.125 108.75 92.554688 108.917969 92.242188 109.367188 L 88.46875 114.617188 C 88.296875 114.847656 88.226562 115.136719 88.246094 115.402344 C 88.265625 115.640625 88.34375 115.867188 88.5 116.0625 L 97.992188 127.984375 C 97.890625 128.320312 97.855469 128.671875 97.882812 129.03125 C 97.886719 129.109375 97.894531 129.203125 97.917969 129.28125 C 98.039062 130.042969 98.46875 130.71875 99.085938 131.175781 L 105.246094 135.601562 L 112.792969 141.027344 L 150.597656 168.097656 L 156.761719 172.523438 C 158.078125 173.449219 159.898438 173.152344 160.820312 171.851562 Z M 145.414062 161.421875 L 154.851562 148.261719 L 160.464844 152.292969 L 151.027344 165.464844 Z M 115.199219 139.757812 L 124.636719 126.582031 L 152.917969 146.867188 L 143.484375 160.042969 Z M 107.640625 134.335938 L 117.074219 121.160156 L 122.6875 125.1875 L 113.253906 138.363281 Z M 90.960938 115.261719 L 93.679688 111.480469 L 106.371094 116.054688 L 99.367188 125.816406 Z M 100.496094 129.226562 C 100.34375 129.109375 100.300781 128.972656 100.28125 128.894531 C 100.273438 128.816406 100.261719 128.660156 100.378906 128.511719 L 109.214844 116.167969 C 109.332031 116.019531 109.46875 115.976562 109.546875 115.953125 C 109.625 115.949219 109.78125 115.9375 109.929688 116.050781 L 115.144531 119.78125 L 105.707031 132.953125 Z M 158.171875 170.574219 L 152.976562 166.84375 L 162.414062 153.671875 L 167.609375 157.402344 C 167.761719 157.515625 167.800781 157.652344 167.824219 157.730469 C 167.824219 157.746094 167.824219 157.761719 167.828125 157.777344 C 167.832031 157.855469 167.828125 157.980469 167.726562 158.117188 L 158.890625 170.457031 C 158.773438 170.609375 158.636719 170.648438 158.558594 170.671875 C 158.464844 170.679688 158.324219 170.671875 158.171875 170.574219 Z M 158.171875 170.574219 " fill-opacity="1" fill-rule="nonzero"/></g></g></g><g clip-path="url(#5d67361bb9)"><g clip-path="url(#5eaeedfeb8)"><g clip-path="url(#e1553d202e)"><path fill="#ffff00" d="M 531.371094 73.789062 L 523.949219 61.140625 C 523.570312 60.492188 522.960938 60.035156 522.242188 59.84375 C 521.519531 59.648438 520.757812 59.765625 520.113281 60.128906 L 513.789062 63.832031 L 475.097656 86.566406 L 467.347656 91.109375 L 461.027344 94.8125 C 460.378906 95.195312 459.921875 95.804688 459.726562 96.523438 C 459.613281 96.933594 459.605469 97.363281 459.699219 97.78125 L 449.527344 108.417969 C 449.167969 108.789062 449.09375 109.355469 449.367188 109.808594 L 452.519531 115.195312 C 452.65625 115.4375 452.882812 115.613281 453.128906 115.699219 C 453.339844 115.777344 453.574219 115.796875 453.808594 115.734375 L 468.042969 112.03125 C 468.304688 112.253906 468.597656 112.421875 468.925781 112.539062 C 468.996094 112.5625 469.082031 112.59375 469.160156 112.605469 C 469.878906 112.796875 470.644531 112.683594 471.289062 112.316406 L 477.609375 108.617188 L 485.351562 104.082031 L 524.050781 81.335938 L 530.371094 77.632812 C 531.703125 76.835938 532.152344 75.113281 531.371094 73.789062 Z M 516.128906 83.296875 L 508.21875 69.8125 L 513.972656 66.4375 L 521.898438 79.925781 Z M 485.175781 101.460938 L 477.25 87.976562 L 506.230469 70.972656 L 514.152344 84.460938 Z M 477.425781 106.007812 L 469.503906 92.519531 L 475.257812 89.148438 L 483.179688 102.636719 Z M 454.0625 113.25 L 451.792969 109.367188 L 460.804688 99.960938 L 466.671875 109.964844 Z M 470.121094 110.308594 C 469.960938 110.398438 469.824219 110.378906 469.746094 110.367188 C 469.675781 110.34375 469.53125 110.292969 469.445312 110.132812 L 462.019531 97.5 C 461.929688 97.339844 461.949219 97.199219 461.960938 97.125 C 461.984375 97.050781 462.035156 96.910156 462.195312 96.820312 L 467.527344 93.683594 L 475.453125 107.171875 Z M 529.203125 75.625 L 523.875 78.75 L 515.953125 65.261719 L 521.277344 62.136719 C 521.4375 62.050781 521.578125 62.066406 521.652344 62.078125 C 521.667969 62.082031 521.683594 62.089844 521.695312 62.09375 C 521.769531 62.117188 521.878906 62.175781 521.957031 62.316406 L 529.378906 74.949219 C 529.46875 75.109375 529.453125 75.246094 529.441406 75.324219 C 529.410156 75.410156 529.351562 75.53125 529.203125 75.625 Z M 529.203125 75.625 " fill-opacity="1" fill-rule="nonzero"/></g></g></g><g clip-path="url(#7470499d39)"><g clip-path="url(#218d0c5129)"><g clip-path="url(#a0e17f4472)"><path fill="#ffff00" d="M 508.625 180.226562 L 497.28125 169.800781 C 496.699219 169.265625 495.945312 168.992188 495.164062 169.019531 C 494.382812 169.050781 493.648438 169.398438 493.113281 169.964844 L 487.898438 175.628906 L 456.015625 210.363281 L 449.628906 217.3125 L 444.417969 222.976562 C 443.878906 223.558594 443.605469 224.3125 443.636719 225.09375 C 443.648438 225.542969 443.769531 225.976562 443.992188 226.371094 L 437.042969 240.179688 C 436.796875 240.664062 436.898438 241.257812 437.3125 241.628906 L 442.132812 246.070312 C 442.347656 246.269531 442.628906 246.378906 442.902344 246.390625 C 443.140625 246.402344 443.378906 246.347656 443.59375 246.214844 L 456.757812 238.121094 C 457.089844 238.261719 457.433594 238.339844 457.800781 238.359375 C 457.878906 238.363281 457.976562 238.367188 458.054688 238.351562 C 458.839844 238.324219 459.570312 237.976562 460.105469 237.410156 L 465.320312 231.746094 L 471.707031 224.8125 L 503.589844 190.058594 L 508.804688 184.394531 C 509.894531 183.1875 509.820312 181.316406 508.625 180.226562 Z M 496.234375 194.464844 L 484.140625 183.351562 L 488.882812 178.191406 L 500.992188 189.304688 Z M 470.722656 222.234375 L 458.613281 211.117188 L 482.5 185.125 L 494.609375 196.238281 Z M 464.335938 229.183594 L 452.226562 218.070312 L 456.96875 212.910156 L 469.078125 224.023438 Z M 443.085938 243.640625 L 439.613281 240.441406 L 445.773438 228.21875 L 454.746094 236.464844 Z M 458.316406 235.75 C 458.183594 235.886719 458.039062 235.914062 457.957031 235.925781 C 457.878906 235.921875 457.71875 235.914062 457.582031 235.78125 L 446.238281 225.371094 C 446.101562 225.238281 446.074219 225.09375 446.0625 225.011719 C 446.066406 224.933594 446.074219 224.773438 446.207031 224.636719 L 450.597656 219.84375 L 462.710938 230.957031 Z M 507.011719 182.738281 L 502.621094 187.511719 L 490.511719 176.398438 L 494.902344 171.621094 C 495.035156 171.484375 495.179688 171.460938 495.261719 171.449219 C 495.277344 171.449219 495.292969 171.449219 495.308594 171.449219 C 495.390625 171.453125 495.515625 171.476562 495.636719 171.59375 L 506.980469 182.003906 C 507.121094 182.136719 507.144531 182.28125 507.15625 182.359375 C 507.152344 182.457031 507.128906 182.597656 507.011719 182.738281 Z M 507.011719 182.738281 " fill-opacity="1" fill-rule="nonzero"/></g></g></g><g clip-path="url(#7dd7379604)"><g clip-path="url(#bd306939ed)"><g clip-path="url(#42b0837d0e)"><path fill="#ffff00" d="M 324.359375 51.1875 L 309.644531 50.273438 C 308.890625 50.226562 308.167969 50.476562 307.601562 50.972656 C 307.039062 51.464844 306.703125 52.164062 306.648438 52.90625 L 306.1875 60.257812 L 303.429688 105.28125 L 302.871094 114.296875 L 302.410156 121.644531 C 302.363281 122.398438 302.613281 123.125 303.105469 123.6875 C 303.386719 124.011719 303.738281 124.261719 304.140625 124.421875 L 307.300781 138.871094 C 307.410156 139.378906 307.84375 139.757812 308.371094 139.785156 L 314.632812 140.179688 C 314.910156 140.199219 315.1875 140.109375 315.394531 139.957031 C 315.578125 139.820312 315.726562 139.632812 315.804688 139.40625 L 320.707031 125.457031 C 321.039062 125.367188 321.34375 125.214844 321.625 125.007812 C 321.6875 124.960938 321.757812 124.90625 321.8125 124.851562 C 322.375 124.355469 322.710938 123.65625 322.765625 122.914062 L 323.226562 115.5625 L 323.792969 106.5625 L 326.542969 61.527344 L 327.003906 54.175781 C 327.085938 52.621094 325.902344 51.277344 324.359375 51.1875 Z M 323.730469 69.230469 L 308.046875 68.261719 L 308.464844 61.570312 L 324.160156 62.53125 Z M 321.507812 105.238281 L 305.8125 104.277344 L 307.898438 70.570312 L 323.59375 71.53125 Z M 320.949219 114.25 L 305.253906 113.289062 L 305.671875 106.597656 L 321.367188 107.558594 Z M 313.878906 137.800781 L 309.367188 137.515625 L 306.578125 124.722656 L 318.214844 125.441406 Z M 320.4375 122.757812 C 320.421875 122.941406 320.328125 123.046875 320.277344 123.105469 C 320.214844 123.148438 320.09375 123.242188 319.910156 123.226562 L 305.207031 122.324219 C 305.023438 122.308594 304.917969 122.21875 304.859375 122.164062 C 304.816406 122.105469 304.726562 121.980469 304.742188 121.796875 L 305.117188 115.589844 L 320.8125 116.550781 Z M 324.671875 54.023438 L 324.289062 60.21875 L 308.59375 59.257812 L 308.976562 53.0625 C 308.992188 52.878906 309.085938 52.773438 309.136719 52.714844 C 309.152344 52.707031 309.164062 52.699219 309.175781 52.6875 C 309.234375 52.644531 309.34375 52.582031 309.503906 52.597656 L 324.207031 53.496094 C 324.390625 53.511719 324.496094 53.605469 324.554688 53.65625 C 324.609375 53.730469 324.675781 53.847656 324.671875 54.023438 Z M 324.671875 54.023438 " fill-opacity="1" fill-rule="nonzero"/></g></g></g><g clip-path="url(#8a33cb2e6e)"><g clip-path="url(#037c33e69f)"><g clip-path="url(#38cd8ee635)"><path fill="#ffff00" d="M 297.753906 212.960938 L 302.769531 228.566406 C 303.023438 229.367188 303.578125 230.015625 304.316406 230.398438 C 305.054688 230.785156 305.917969 230.847656 306.710938 230.601562 L 314.507812 228.101562 L 362.253906 212.71875 L 371.8125 209.644531 L 379.613281 207.144531 C 380.414062 206.890625 381.0625 206.335938 381.445312 205.597656 C 381.671875 205.175781 381.785156 204.710938 381.785156 204.230469 L 395.472656 195.105469 C 395.953125 194.785156 396.171875 194.183594 395.984375 193.625 L 393.855469 186.984375 C 393.761719 186.683594 393.558594 186.4375 393.316406 186.28125 C 393.101562 186.148438 392.847656 186.070312 392.582031 186.082031 L 376.148438 186.652344 C 375.921875 186.347656 375.640625 186.09375 375.3125 185.886719 C 375.238281 185.839844 375.152344 185.785156 375.070312 185.757812 C 374.332031 185.371094 373.472656 185.308594 372.679688 185.550781 L 364.878906 188.050781 L 355.332031 191.113281 L 307.574219 206.507812 L 299.777344 209.007812 C 298.132812 209.554688 297.222656 211.324219 297.753906 212.960938 Z M 316.695312 206.300781 L 322.042969 222.933594 L 314.945312 225.214844 L 309.582031 208.570312 Z M 354.886719 194.015625 L 360.25 210.65625 L 324.496094 222.15625 L 319.132812 205.511719 Z M 364.445312 190.941406 L 369.808594 207.585938 L 362.710938 209.863281 L 357.347656 193.21875 Z M 391.699219 188.726562 L 393.230469 193.515625 L 381.109375 201.582031 L 377.144531 189.238281 Z M 373.464844 188.027344 C 373.660156 187.96875 373.804688 188.023438 373.886719 188.050781 C 373.960938 188.097656 374.101562 188.1875 374.160156 188.382812 L 379.183594 203.972656 C 379.242188 204.171875 379.1875 204.316406 379.15625 204.398438 C 379.113281 204.46875 379.023438 204.613281 378.828125 204.671875 L 372.246094 206.796875 L 366.882812 190.152344 Z M 300.5625 211.484375 L 307.132812 209.375 L 312.496094 226.015625 L 305.925781 228.128906 C 305.730469 228.183594 305.582031 228.132812 305.503906 228.101562 C 305.488281 228.09375 305.472656 228.082031 305.460938 228.074219 C 305.386719 228.03125 305.28125 227.945312 305.230469 227.769531 L 300.207031 212.179688 C 300.148438 211.984375 300.199219 211.835938 300.230469 211.757812 C 300.285156 211.671875 300.382812 211.550781 300.5625 211.484375 Z M 300.5625 211.484375 " fill-opacity="1" fill-rule="nonzero"/></g></g></g><g clip-path="url(#aec1664762)"><g clip-path="url(#4f0e406a5e)"><g clip-path="url(#a348081aa2)"><path fill="#ffff00" d="M 443.183594 78.277344 L 454.105469 67.71875 C 454.667969 67.179688 454.980469 66.453125 454.996094 65.683594 C 455.015625 64.910156 454.710938 64.167969 454.1875 63.609375 L 448.917969 58.148438 L 416.585938 24.746094 L 410.121094 18.054688 L 404.847656 12.597656 C 404.308594 12.035156 403.582031 11.722656 402.8125 11.703125 C 402.371094 11.691406 401.933594 11.785156 401.535156 11.980469 L 388.347656 4.335938 C 387.886719 4.066406 387.296875 4.132812 386.90625 4.515625 L 382.253906 9.003906 C 382.046875 9.203125 381.921875 9.472656 381.894531 9.738281 C 381.871094 9.972656 381.90625 10.214844 382.027344 10.433594 L 389.226562 23.859375 C 389.070312 24.175781 388.96875 24.511719 388.933594 24.871094 C 388.925781 24.949219 388.914062 25.042969 388.921875 25.125 C 388.90625 25.894531 389.207031 26.636719 389.730469 27.195312 L 395.003906 32.65625 L 401.453125 39.347656 L 433.800781 72.75 L 439.070312 78.210938 C 440.199219 79.355469 442.039062 79.390625 443.183594 78.277344 Z M 429.894531 65.253906 L 441.535156 54 L 446.335938 58.96875 L 434.691406 70.238281 Z M 404.050781 38.527344 L 415.695312 27.257812 L 439.882812 52.28125 L 428.242188 63.550781 Z M 397.582031 31.835938 L 409.226562 20.566406 L 414.027344 25.535156 L 402.382812 36.804688 Z M 384.589844 10.085938 L 387.941406 6.851562 L 399.609375 13.628906 L 390.972656 21.976562 Z M 391.46875 25.53125 C 391.339844 25.390625 391.324219 25.25 391.316406 25.167969 C 391.324219 25.089844 391.339844 24.933594 391.480469 24.808594 L 402.386719 14.25 C 402.527344 14.121094 402.671875 14.105469 402.75 14.097656 C 402.828125 14.105469 402.984375 14.121094 403.113281 14.261719 L 407.570312 18.863281 L 395.929688 30.132812 Z M 440.804688 76.542969 L 436.363281 71.945312 L 448.003906 60.675781 L 452.449219 65.273438 C 452.578125 65.414062 452.59375 65.558594 452.601562 65.636719 C 452.601562 65.652344 452.597656 65.667969 452.597656 65.683594 C 452.589844 65.761719 452.558594 65.886719 452.4375 66 L 441.53125 76.558594 C 441.390625 76.683594 441.25 76.703125 441.167969 76.710938 C 441.074219 76.699219 440.9375 76.667969 440.804688 76.542969 Z M 440.804688 76.542969 " fill-opacity="1" fill-rule="nonzero"/></g></g></g><g clip-path="url(#611d7d2b4a)"><g clip-path="url(#ddd0431ac7)"><g clip-path="url(#ef5afd1597)"><path fill="#ffff00" d="M 430.324219 171.851562 L 439.175781 159.511719 C 439.632812 158.878906 439.808594 158.109375 439.6875 157.347656 C 439.566406 156.582031 439.136719 155.90625 438.519531 155.449219 L 432.359375 151.023438 L 394.566406 123.953125 L 387.003906 118.53125 L 380.84375 114.101562 C 380.210938 113.644531 379.441406 113.46875 378.675781 113.589844 C 378.242188 113.652344 377.828125 113.828125 377.472656 114.089844 L 363.128906 108.933594 C 362.625 108.75 362.054688 108.917969 361.742188 109.367188 L 357.96875 114.617188 C 357.800781 114.847656 357.726562 115.136719 357.746094 115.402344 C 357.765625 115.640625 357.84375 115.867188 358.003906 116.0625 L 367.492188 127.984375 C 367.390625 128.320312 367.355469 128.671875 367.382812 129.03125 C 367.386719 129.109375 367.394531 129.203125 367.417969 129.28125 C 367.539062 130.042969 367.96875 130.71875 368.585938 131.175781 L 374.75 135.601562 L 382.292969 141.027344 L 420.101562 168.097656 L 426.265625 172.523438 C 427.578125 173.449219 429.398438 173.152344 430.324219 171.851562 Z M 414.914062 161.421875 L 424.351562 148.261719 L 429.964844 152.292969 L 420.53125 165.464844 Z M 384.703125 139.757812 L 394.136719 126.582031 L 422.421875 146.867188 L 412.984375 160.042969 Z M 377.140625 134.335938 L 386.574219 121.160156 L 392.191406 125.1875 L 382.753906 138.363281 Z M 360.460938 115.261719 L 363.179688 111.480469 L 375.875 116.054688 L 368.871094 125.816406 Z M 369.996094 129.226562 C 369.84375 129.109375 369.804688 128.972656 369.78125 128.894531 C 369.777344 128.816406 369.761719 128.660156 369.878906 128.511719 L 378.714844 116.167969 C 378.832031 116.019531 378.96875 115.976562 379.046875 115.953125 C 379.125 115.949219 379.28125 115.9375 379.433594 116.050781 L 384.644531 119.78125 L 375.207031 132.953125 Z M 427.675781 170.574219 L 422.476562 166.84375 L 431.914062 153.671875 L 437.109375 157.402344 C 437.261719 157.515625 437.304688 157.652344 437.324219 157.730469 C 437.324219 157.746094 437.328125 157.761719 437.328125 157.777344 C 437.335938 157.855469 437.328125 157.980469 437.226562 158.117188 L 428.390625 170.457031 C 428.273438 170.609375 428.136719 170.648438 428.058594 170.671875 C 427.964844 170.679688 427.824219 170.671875 427.675781 170.574219 Z M 427.675781 170.574219 " fill-opacity="1" fill-rule="nonzero"/></g></g></g><g clip-path="url(#f103b72dc8)"><g clip-path="url(#999b3a0f58)"><g clip-path="url(#26f18b3be5)"><path fill="#ffff00" d="M 261.867188 343.292969 L 254.449219 330.644531 C 254.070312 329.992188 253.460938 329.535156 252.738281 329.34375 C 252.019531 329.152344 251.253906 329.265625 250.609375 329.628906 L 244.289062 333.332031 L 205.597656 356.066406 L 197.847656 360.613281 L 191.527344 364.316406 C 190.878906 364.695312 190.417969 365.304688 190.226562 366.023438 C 190.113281 366.433594 190.105469 366.863281 190.195312 367.285156 L 180.023438 377.917969 C 179.667969 378.289062 179.59375 378.859375 179.867188 379.308594 L 183.019531 384.695312 C 183.15625 384.9375 183.382812 385.113281 183.625 385.199219 C 183.839844 385.277344 184.074219 385.296875 184.304688 385.234375 L 198.542969 381.53125 C 198.800781 381.753906 199.097656 381.921875 199.425781 382.039062 C 199.496094 382.066406 199.582031 382.09375 199.65625 382.105469 C 200.378906 382.296875 201.140625 382.183594 201.789062 381.820312 L 208.109375 378.117188 L 215.851562 373.585938 L 254.550781 350.835938 L 260.871094 347.136719 C 262.199219 346.335938 262.652344 344.617188 261.867188 343.292969 Z M 246.628906 352.796875 L 238.71875 339.3125 L 244.472656 335.941406 L 252.394531 349.425781 Z M 215.675781 370.964844 L 207.75 357.476562 L 236.726562 340.472656 L 244.652344 353.960938 Z M 207.925781 375.507812 L 200 362.023438 L 205.753906 358.648438 L 213.679688 372.136719 Z M 184.5625 382.75 L 182.292969 378.871094 L 191.304688 369.464844 L 197.171875 379.46875 Z M 200.621094 379.8125 C 200.460938 379.898438 200.320312 379.882812 200.246094 379.871094 C 200.171875 379.84375 200.03125 379.792969 199.941406 379.632812 L 192.519531 367 C 192.429688 366.839844 192.449219 366.703125 192.457031 366.625 C 192.484375 366.554688 192.535156 366.410156 192.695312 366.324219 L 198.027344 363.183594 L 205.953125 376.671875 Z M 259.703125 345.125 L 254.375 348.25 L 246.449219 334.761719 L 251.777344 331.640625 C 251.9375 331.550781 252.078125 331.570312 252.152344 331.578125 C 252.167969 331.585938 252.179688 331.589844 252.195312 331.59375 C 252.265625 331.621094 252.375 331.675781 252.457031 331.816406 L 259.878906 344.449219 C 259.96875 344.609375 259.949219 344.75 259.9375 344.824219 C 259.910156 344.910156 259.847656 345.035156 259.703125 345.125 Z M 259.703125 345.125 " fill-opacity="1" fill-rule="nonzero"/></g></g></g><g clip-path="url(#1def817579)"><g clip-path="url(#b8a5b2455e)"><g clip-path="url(#8f25049d5d)"><path fill="#ffff00" d="M 239.121094 449.726562 L 227.78125 439.300781 C 227.199219 438.765625 226.445312 438.492188 225.664062 438.523438 C 224.878906 438.550781 224.148438 438.898438 223.613281 439.464844 L 218.398438 445.128906 L 186.515625 479.863281 L 180.128906 486.816406 L 174.914062 492.480469 C 174.378906 493.058594 174.105469 493.8125 174.136719 494.59375 C 174.148438 495.042969 174.269531 495.476562 174.492188 495.871094 L 167.542969 509.683594 C 167.296875 510.164062 167.398438 510.761719 167.8125 511.128906 L 172.632812 515.570312 C 172.847656 515.769531 173.128906 515.878906 173.398438 515.890625 C 173.636719 515.902344 173.878906 515.851562 174.09375 515.714844 L 187.257812 507.621094 C 187.585938 507.761719 187.933594 507.84375 188.300781 507.859375 C 188.378906 507.863281 188.476562 507.867188 188.554688 507.855469 C 189.335938 507.824219 190.070312 507.476562 190.605469 506.910156 L 195.820312 501.246094 L 202.203125 494.3125 L 234.089844 459.5625 L 239.300781 453.898438 C 240.394531 452.6875 240.316406 450.816406 239.121094 449.726562 Z M 226.734375 463.964844 L 214.640625 452.851562 L 219.382812 447.691406 L 231.492188 458.804688 Z M 201.21875 491.734375 L 189.113281 480.621094 L 212.996094 454.625 L 225.105469 465.738281 Z M 194.835938 498.683594 L 182.726562 487.570312 L 187.46875 482.410156 L 199.578125 493.523438 Z M 173.585938 513.140625 L 170.113281 509.941406 L 176.273438 497.71875 L 185.246094 505.96875 Z M 188.816406 505.25 C 188.683594 505.390625 188.539062 505.414062 188.457031 505.425781 C 188.378906 505.421875 188.21875 505.414062 188.082031 505.28125 L 176.738281 494.871094 C 176.601562 494.738281 176.574219 494.59375 176.5625 494.511719 C 176.566406 494.433594 176.574219 494.273438 176.707031 494.136719 L 181.097656 489.34375 L 193.207031 500.460938 Z M 237.511719 452.238281 L 233.121094 457.015625 L 221.011719 445.898438 L 225.402344 441.125 C 225.535156 440.988281 225.679688 440.960938 225.761719 440.949219 C 225.777344 440.949219 225.792969 440.949219 225.808594 440.949219 C 225.886719 440.953125 226.015625 440.976562 226.136719 441.09375 L 237.480469 451.503906 C 237.617188 451.636719 237.644531 451.78125 237.65625 451.863281 C 237.652344 451.957031 237.628906 452.101562 237.511719 452.238281 Z M 237.511719 452.238281 " fill-opacity="1" fill-rule="nonzero"/></g></g></g><g clip-path="url(#b1128b36bc)"><g clip-path="url(#750f0e8fa2)"><g clip-path="url(#e235e94ee3)"><path fill="#ffff00" d="M 54.855469 320.6875 L 40.144531 319.777344 C 39.390625 319.726562 38.664062 319.980469 38.101562 320.472656 C 37.539062 320.964844 37.203125 321.664062 37.148438 322.410156 L 36.6875 329.757812 L 33.929688 374.78125 L 33.371094 383.796875 L 32.910156 391.144531 C 32.863281 391.902344 33.113281 392.625 33.605469 393.1875 C 33.882812 393.515625 34.238281 393.761719 34.640625 393.921875 L 37.796875 408.371094 C 37.910156 408.878906 38.339844 409.257812 38.871094 409.285156 L 45.128906 409.679688 C 45.410156 409.699219 45.683594 409.609375 45.894531 409.457031 C 46.078125 409.320312 46.226562 409.136719 46.304688 408.90625 L 51.207031 394.957031 C 51.535156 394.867188 51.84375 394.714844 52.125 394.507812 C 52.183594 394.460938 52.257812 394.410156 52.3125 394.351562 C 52.875 393.859375 53.210938 393.15625 53.265625 392.414062 L 53.726562 385.0625 L 54.292969 376.0625 L 57.042969 331.027344 L 57.5 323.675781 C 57.582031 322.121094 56.402344 320.777344 54.855469 320.6875 Z M 54.230469 338.730469 L 38.546875 337.761719 L 38.960938 331.070312 L 54.65625 332.03125 Z M 52.007812 374.738281 L 36.3125 373.777344 L 38.394531 340.070312 L 54.09375 341.03125 Z M 51.449219 383.753906 L 35.753906 382.792969 L 36.171875 376.101562 L 51.867188 377.0625 Z M 44.375 407.300781 L 39.867188 407.015625 L 37.078125 394.222656 L 48.714844 394.945312 Z M 50.9375 392.261719 C 50.917969 392.441406 50.828125 392.546875 50.777344 392.605469 C 50.714844 392.652344 50.589844 392.742188 50.410156 392.726562 L 35.707031 391.828125 C 35.523438 391.808594 35.417969 391.71875 35.359375 391.664062 C 35.316406 391.605469 35.222656 391.480469 35.242188 391.300781 L 35.617188 385.089844 L 51.3125 386.050781 Z M 55.171875 323.523438 L 54.789062 329.71875 L 39.089844 328.757812 L 39.476562 322.5625 C 39.492188 322.378906 39.585938 322.273438 39.636719 322.214844 C 39.648438 322.207031 39.660156 322.199219 39.675781 322.1875 C 39.734375 322.144531 39.84375 322.082031 40.003906 322.097656 L 54.707031 322.996094 C 54.890625 323.011719 54.996094 323.105469 55.050781 323.15625 C 55.105469 323.230469 55.175781 323.351562 55.171875 323.523438 Z M 55.171875 323.523438 " fill-opacity="1" fill-rule="nonzero"/></g></g></g><g clip-path="url(#6433dac9d6)"><g clip-path="url(#101878be05)"><g clip-path="url(#58c8f0a043)"><path fill="#ffff00" d="M 28.253906 482.460938 L 33.269531 498.066406 C 33.523438 498.867188 34.078125 499.515625 34.816406 499.898438 C 35.554688 500.285156 36.417969 500.347656 37.210938 500.105469 L 45.007812 497.605469 L 92.753906 482.222656 L 102.3125 479.148438 L 110.109375 476.648438 C 110.914062 476.390625 111.5625 475.835938 111.945312 475.097656 C 112.167969 474.679688 112.285156 474.210938 112.285156 473.730469 L 125.972656 464.605469 C 126.453125 464.289062 126.671875 463.683594 126.480469 463.125 L 124.355469 456.484375 C 124.261719 456.183594 124.058594 455.9375 123.816406 455.78125 C 123.597656 455.648438 123.347656 455.570312 123.082031 455.582031 L 106.648438 456.152344 C 106.417969 455.851562 106.140625 455.59375 105.808594 455.386719 C 105.738281 455.339844 105.652344 455.289062 105.570312 455.257812 C 104.832031 454.871094 103.96875 454.808594 103.179688 455.050781 L 95.378906 457.550781 L 85.828125 460.613281 L 38.074219 476.007812 L 30.277344 478.511719 C 28.632812 479.054688 27.71875 480.824219 28.253906 482.460938 Z M 47.191406 475.800781 L 52.542969 492.433594 L 45.441406 494.714844 L 40.082031 478.070312 Z M 85.386719 463.515625 L 90.746094 480.160156 L 54.992188 491.65625 L 49.628906 475.011719 Z M 94.945312 460.441406 L 100.308594 477.085938 L 93.207031 479.367188 L 87.84375 462.722656 Z M 122.195312 458.226562 L 123.730469 463.015625 L 111.609375 471.082031 L 107.640625 458.742188 Z M 103.960938 457.527344 C 104.160156 457.46875 104.304688 457.523438 104.386719 457.554688 C 104.457031 457.597656 104.601562 457.6875 104.660156 457.886719 L 109.683594 473.476562 C 109.742188 473.671875 109.6875 473.820312 109.65625 473.898438 C 109.613281 473.972656 109.523438 474.113281 109.324219 474.171875 L 102.746094 476.296875 L 97.382812 459.652344 Z M 31.0625 480.984375 L 37.632812 478.875 L 42.996094 495.519531 L 36.425781 497.628906 C 36.230469 497.6875 36.082031 497.632812 36 497.601562 C 35.988281 497.59375 35.972656 497.585938 35.957031 497.574219 C 35.886719 497.53125 35.78125 497.445312 35.730469 497.273438 L 30.703125 481.679688 C 30.648438 481.484375 30.699219 481.339844 30.730469 481.257812 C 30.785156 481.171875 30.878906 481.050781 31.0625 480.984375 Z M 31.0625 480.984375 " fill-opacity="1" fill-rule="nonzero"/></g></g></g><g clip-path="url(#7db9022868)"><g clip-path="url(#a4a7358ee4)"><g clip-path="url(#bc8f7d3e59)"><path fill="#ffff00" d="M 173.683594 347.777344 L 184.605469 337.222656 C 185.164062 336.679688 185.476562 335.957031 185.496094 335.183594 C 185.511719 334.410156 185.210938 333.667969 184.6875 333.109375 L 179.414062 327.648438 L 147.085938 294.246094 L 140.617188 287.554688 L 135.347656 282.097656 C 134.808594 281.535156 134.082031 281.222656 133.308594 281.203125 C 132.871094 281.191406 132.433594 281.285156 132.035156 281.480469 L 118.847656 273.835938 C 118.386719 273.566406 117.792969 273.632812 117.40625 274.019531 L 112.753906 278.503906 C 112.542969 278.703125 112.421875 278.976562 112.394531 279.242188 C 112.367188 279.476562 112.40625 279.714844 112.527344 279.933594 L 119.726562 293.363281 C 119.566406 293.675781 119.46875 294.015625 119.433594 294.375 C 119.425781 294.453125 119.414062 294.542969 119.421875 294.625 C 119.402344 295.394531 119.703125 296.136719 120.230469 296.699219 L 125.5 302.160156 L 131.953125 308.847656 L 164.296875 342.25 L 169.570312 347.710938 C 170.695312 348.855469 172.539062 348.890625 173.683594 347.777344 Z M 160.394531 334.753906 L 172.035156 323.5 L 176.835938 328.46875 L 165.191406 339.738281 Z M 134.550781 308.027344 L 146.191406 296.757812 L 170.382812 321.78125 L 158.738281 333.050781 Z M 128.082031 301.339844 L 139.726562 290.066406 L 144.523438 295.035156 L 132.882812 306.308594 Z M 115.089844 279.585938 L 118.441406 276.351562 L 130.109375 283.128906 L 121.472656 291.476562 Z M 121.96875 295.03125 C 121.839844 294.894531 121.824219 294.75 121.816406 294.667969 C 121.824219 294.589844 121.839844 294.433594 121.980469 294.308594 L 132.886719 283.75 C 133.027344 283.621094 133.167969 283.605469 133.25 283.597656 C 133.328125 283.605469 133.484375 283.621094 133.613281 283.761719 L 138.070312 288.363281 L 126.429688 299.632812 Z M 171.304688 346.046875 L 166.859375 341.445312 L 178.503906 330.175781 L 182.949219 334.773438 C 183.078125 334.914062 183.09375 335.058594 183.101562 335.136719 C 183.097656 335.15625 183.097656 335.167969 183.097656 335.183594 C 183.085938 335.261719 183.058594 335.386719 182.9375 335.5 L 172.03125 346.058594 C 171.890625 346.1875 171.746094 346.203125 171.667969 346.210938 C 171.574219 346.199219 171.433594 346.167969 171.304688 346.046875 Z M 171.304688 346.046875 " fill-opacity="1" fill-rule="nonzero"/></g></g></g><g clip-path="url(#360fa46105)"><g clip-path="url(#4559409e70)"><g clip-path="url(#e967508f70)"><path fill="#ffff00" d="M 160.820312 441.355469 L 169.675781 429.011719 C 170.132812 428.378906 170.308594 427.609375 170.1875 426.847656 C 170.066406 426.085938 169.636719 425.410156 169.019531 424.953125 L 162.855469 420.523438 L 125.066406 393.453125 L 117.503906 388.03125 L 111.339844 383.601562 C 110.707031 383.148438 109.9375 382.96875 109.175781 383.089844 C 108.742188 383.15625 108.328125 383.328125 107.972656 383.589844 L 93.625 378.433594 C 93.125 378.25 92.554688 378.421875 92.242188 378.871094 L 88.46875 384.117188 C 88.296875 384.351562 88.226562 384.636719 88.246094 384.90625 C 88.265625 385.140625 88.34375 385.371094 88.5 385.5625 L 97.992188 397.484375 C 97.890625 397.820312 97.855469 398.171875 97.882812 398.53125 C 97.886719 398.609375 97.894531 398.703125 97.917969 398.78125 C 98.039062 399.542969 98.46875 400.21875 99.085938 400.675781 L 105.246094 405.101562 L 112.792969 410.527344 L 150.597656 437.597656 L 156.761719 442.027344 C 158.078125 442.949219 159.898438 442.652344 160.820312 441.355469 Z M 145.414062 430.921875 L 154.851562 417.765625 L 160.464844 421.792969 L 151.027344 434.96875 Z M 115.199219 409.257812 L 124.636719 396.085938 L 152.917969 416.367188 L 143.484375 429.542969 Z M 107.640625 403.835938 L 117.074219 390.660156 L 122.6875 394.691406 L 113.253906 407.863281 Z M 90.960938 384.761719 L 93.679688 380.980469 L 106.371094 385.554688 L 99.367188 395.316406 Z M 100.496094 398.726562 C 100.34375 398.613281 100.300781 398.472656 100.28125 398.394531 C 100.273438 398.316406 100.261719 398.160156 100.378906 398.011719 L 109.214844 385.667969 C 109.332031 385.519531 109.46875 385.476562 109.546875 385.457031 C 109.625 385.449219 109.78125 385.4375 109.929688 385.550781 L 115.144531 389.28125 L 105.707031 402.453125 Z M 158.171875 440.074219 L 152.976562 436.347656 L 162.414062 423.171875 L 167.609375 426.902344 C 167.761719 427.015625 167.800781 427.15625 167.824219 427.230469 C 167.824219 427.246094 167.824219 427.261719 167.828125 427.277344 C 167.832031 427.355469 167.828125 427.484375 167.726562 427.617188 L 158.890625 439.957031 C 158.773438 440.109375 158.636719 440.152344 158.558594 440.171875 C 158.464844 440.179688 158.324219 440.175781 158.171875 440.074219 Z M 158.171875 440.074219 " fill-opacity="1" fill-rule="nonzero"/></g></g></g><g clip-path="url(#c87a54644f)"><g clip-path="url(#a8b053e691)"><g clip-path="url(#1bd76c7e21)"><path fill="#ffff00" d="M 531.371094 343.292969 L 523.949219 330.644531 C 523.570312 329.992188 522.960938 329.535156 522.242188 329.34375 C 521.519531 329.152344 520.757812 329.265625 520.113281 329.628906 L 513.789062 333.332031 L 475.097656 356.066406 L 467.347656 360.613281 L 461.027344 364.316406 C 460.378906 364.695312 459.921875 365.304688 459.726562 366.023438 C 459.613281 366.433594 459.605469 366.863281 459.699219 367.285156 L 449.527344 377.917969 C 449.167969 378.289062 449.09375 378.859375 449.367188 379.308594 L 452.519531 384.695312 C 452.65625 384.9375 452.882812 385.113281 453.128906 385.199219 C 453.339844 385.277344 453.574219 385.296875 453.808594 385.234375 L 468.042969 381.53125 C 468.304688 381.753906 468.597656 381.921875 468.925781 382.039062 C 468.996094 382.066406 469.082031 382.09375 469.160156 382.105469 C 469.878906 382.296875 470.644531 382.183594 471.289062 381.820312 L 477.609375 378.117188 L 485.351562 373.585938 L 524.050781 350.835938 L 530.371094 347.136719 C 531.703125 346.335938 532.152344 344.617188 531.371094 343.292969 Z M 516.128906 352.796875 L 508.21875 339.3125 L 513.972656 335.941406 L 521.898438 349.425781 Z M 485.175781 370.964844 L 477.25 357.476562 L 506.230469 340.472656 L 514.152344 353.960938 Z M 477.425781 375.507812 L 469.503906 362.023438 L 475.257812 358.648438 L 483.179688 372.136719 Z M 454.0625 382.75 L 451.792969 378.871094 L 460.804688 369.464844 L 466.671875 379.46875 Z M 470.121094 379.8125 C 469.960938 379.898438 469.824219 379.882812 469.746094 379.871094 C 469.675781 379.84375 469.53125 379.792969 469.445312 379.632812 L 462.019531 367 C 461.929688 366.839844 461.949219 366.703125 461.960938 366.625 C 461.984375 366.554688 462.035156 366.410156 462.195312 366.324219 L 467.527344 363.183594 L 475.453125 376.671875 Z M 529.203125 345.125 L 523.875 348.25 L 515.953125 334.761719 L 521.277344 331.640625 C 521.4375 331.550781 521.578125 331.570312 521.652344 331.578125 C 521.667969 331.585938 521.683594 331.589844 521.695312 331.59375 C 521.769531 331.621094 521.878906 331.675781 521.957031 331.816406 L 529.378906 344.449219 C 529.46875 344.609375 529.453125 344.75 529.441406 344.824219 C 529.410156 344.910156 529.351562 345.035156 529.203125 345.125 Z M 529.203125 345.125 " fill-opacity="1" fill-rule="nonzero"/></g></g></g><g clip-path="url(#89c95bb909)"><g clip-path="url(#f9b325eb51)"><g clip-path="url(#a5b6be91ee)"><path fill="#ffff00" d="M 508.625 449.726562 L 497.28125 439.300781 C 496.699219 438.765625 495.945312 438.492188 495.164062 438.523438 C 494.382812 438.550781 493.648438 438.898438 493.113281 439.464844 L 487.898438 445.128906 L 456.015625 479.863281 L 449.628906 486.816406 L 444.417969 492.480469 C 443.878906 493.058594 443.605469 493.8125 443.636719 494.59375 C 443.648438 495.042969 443.769531 495.476562 443.992188 495.871094 L 437.042969 509.683594 C 436.796875 510.164062 436.898438 510.761719 437.3125 511.128906 L 442.132812 515.570312 C 442.347656 515.769531 442.628906 515.878906 442.902344 515.890625 C 443.140625 515.902344 443.378906 515.851562 443.59375 515.714844 L 456.757812 507.621094 C 457.089844 507.761719 457.433594 507.84375 457.800781 507.859375 C 457.878906 507.863281 457.976562 507.867188 458.054688 507.855469 C 458.839844 507.824219 459.570312 507.476562 460.105469 506.910156 L 465.320312 501.246094 L 471.707031 494.3125 L 503.589844 459.5625 L 508.804688 453.898438 C 509.894531 452.6875 509.820312 450.816406 508.625 449.726562 Z M 496.234375 463.964844 L 484.140625 452.851562 L 488.882812 447.691406 L 500.992188 458.804688 Z M 470.722656 491.734375 L 458.613281 480.621094 L 482.5 454.625 L 494.609375 465.738281 Z M 464.335938 498.683594 L 452.226562 487.570312 L 456.96875 482.410156 L 469.078125 493.523438 Z M 443.085938 513.140625 L 439.613281 509.941406 L 445.773438 497.71875 L 454.746094 505.96875 Z M 458.316406 505.25 C 458.183594 505.390625 458.039062 505.414062 457.957031 505.425781 C 457.878906 505.421875 457.71875 505.414062 457.582031 505.28125 L 446.238281 494.871094 C 446.101562 494.738281 446.074219 494.59375 446.0625 494.511719 C 446.066406 494.433594 446.074219 494.273438 446.207031 494.136719 L 450.597656 489.34375 L 462.710938 500.460938 Z M 507.011719 452.238281 L 502.621094 457.015625 L 490.511719 445.898438 L 494.902344 441.125 C 495.035156 440.988281 495.179688 440.960938 495.261719 440.949219 C 495.277344 440.949219 495.292969 440.949219 495.308594 440.949219 C 495.390625 440.953125 495.515625 440.976562 495.636719 441.09375 L 506.980469 451.503906 C 507.121094 451.636719 507.144531 451.78125 507.15625 451.863281 C 507.152344 451.957031 507.128906 452.101562 507.011719 452.238281 Z M 507.011719 452.238281 " fill-opacity="1" fill-rule="nonzero"/></g></g></g><g clip-path="url(#e5081ba525)"><g clip-path="url(#c52c4c879c)"><g clip-path="url(#75b0768d27)"><path fill="#ffff00" d="M 324.359375 320.6875 L 309.644531 319.777344 C 308.890625 319.726562 308.167969 319.980469 307.601562 320.472656 C 307.039062 320.964844 306.703125 321.664062 306.648438 322.410156 L 306.1875 329.757812 L 303.429688 374.78125 L 302.871094 383.796875 L 302.410156 391.144531 C 302.363281 391.902344 302.613281 392.625 303.105469 393.1875 C 303.386719 393.515625 303.738281 393.761719 304.140625 393.921875 L 307.300781 408.371094 C 307.410156 408.878906 307.84375 409.257812 308.371094 409.285156 L 314.632812 409.679688 C 314.910156 409.699219 315.1875 409.609375 315.394531 409.457031 C 315.578125 409.320312 315.726562 409.136719 315.804688 408.90625 L 320.707031 394.957031 C 321.039062 394.867188 321.34375 394.714844 321.625 394.507812 C 321.6875 394.460938 321.757812 394.410156 321.8125 394.351562 C 322.375 393.859375 322.710938 393.15625 322.765625 392.414062 L 323.226562 385.0625 L 323.792969 376.0625 L 326.542969 331.027344 L 327.003906 323.675781 C 327.085938 322.121094 325.902344 320.777344 324.359375 320.6875 Z M 323.730469 338.730469 L 308.046875 337.761719 L 308.464844 331.070312 L 324.160156 332.03125 Z M 321.507812 374.738281 L 305.8125 373.777344 L 307.898438 340.070312 L 323.59375 341.03125 Z M 320.949219 383.753906 L 305.253906 382.792969 L 305.671875 376.101562 L 321.367188 377.0625 Z M 313.878906 407.300781 L 309.367188 407.015625 L 306.578125 394.222656 L 318.214844 394.945312 Z M 320.4375 392.261719 C 320.421875 392.441406 320.328125 392.546875 320.277344 392.605469 C 320.214844 392.652344 320.09375 392.742188 319.910156 392.726562 L 305.207031 391.828125 C 305.023438 391.808594 304.917969 391.71875 304.859375 391.664062 C 304.816406 391.605469 304.726562 391.480469 304.742188 391.300781 L 305.117188 385.089844 L 320.8125 386.050781 Z M 324.671875 323.523438 L 324.289062 329.71875 L 308.59375 328.757812 L 308.976562 322.5625 C 308.992188 322.378906 309.085938 322.273438 309.136719 322.214844 C 309.152344 322.207031 309.164062 322.199219 309.175781 322.1875 C 309.234375 322.144531 309.34375 322.082031 309.503906 322.097656 L 324.207031 322.996094 C 324.390625 323.011719 324.496094 323.105469 324.554688 323.15625 C 324.609375 323.230469 324.675781 323.351562 324.671875 323.523438 Z M 324.671875 323.523438 " fill-opacity="1" fill-rule="nonzero"/></g></g></g><g clip-path="url(#ae11dab374)"><g clip-path="url(#57b881a3ca)"><g clip-path="url(#b9f2a8f26e)"><path fill="#ffff00" d="M 297.753906 482.460938 L 302.769531 498.066406 C 303.023438 498.867188 303.578125 499.515625 304.316406 499.898438 C 305.054688 500.285156 305.917969 500.347656 306.710938 500.105469 L 314.507812 497.605469 L 362.253906 482.222656 L 371.8125 479.148438 L 379.613281 476.648438 C 380.414062 476.390625 381.0625 475.835938 381.445312 475.097656 C 381.671875 474.679688 381.785156 474.210938 381.785156 473.730469 L 395.472656 464.605469 C 395.953125 464.289062 396.171875 463.683594 395.984375 463.125 L 393.855469 456.484375 C 393.761719 456.183594 393.558594 455.9375 393.316406 455.78125 C 393.101562 455.648438 392.847656 455.570312 392.582031 455.582031 L 376.148438 456.152344 C 375.921875 455.851562 375.640625 455.59375 375.3125 455.386719 C 375.238281 455.339844 375.152344 455.289062 375.070312 455.257812 C 374.332031 454.871094 373.472656 454.808594 372.679688 455.050781 L 364.878906 457.550781 L 355.332031 460.613281 L 307.574219 476.007812 L 299.777344 478.511719 C 298.132812 479.054688 297.222656 480.824219 297.753906 482.460938 Z M 316.695312 475.800781 L 322.042969 492.433594 L 314.945312 494.714844 L 309.582031 478.070312 Z M 354.886719 463.515625 L 360.25 480.160156 L 324.496094 491.65625 L 319.132812 475.011719 Z M 364.445312 460.441406 L 369.808594 477.085938 L 362.710938 479.367188 L 357.347656 462.722656 Z M 391.699219 458.226562 L 393.230469 463.015625 L 381.109375 471.082031 L 377.144531 458.742188 Z M 373.464844 457.527344 C 373.660156 457.46875 373.804688 457.523438 373.886719 457.554688 C 373.960938 457.597656 374.101562 457.6875 374.160156 457.886719 L 379.183594 473.476562 C 379.242188 473.671875 379.1875 473.820312 379.15625 473.898438 C 379.113281 473.972656 379.023438 474.113281 378.828125 474.171875 L 372.246094 476.296875 L 366.882812 459.652344 Z M 300.5625 480.984375 L 307.132812 478.875 L 312.496094 495.519531 L 305.925781 497.628906 C 305.730469 497.6875 305.582031 497.632812 305.503906 497.601562 C 305.488281 497.59375 305.472656 497.585938 305.460938 497.574219 C 305.386719 497.53125 305.28125 497.445312 305.230469 497.273438 L 300.207031 481.679688 C 300.148438 481.484375 300.199219 481.339844 300.230469 481.257812 C 300.285156 481.171875 300.382812 481.050781 300.5625 480.984375 Z M 300.5625 480.984375 " fill-opacity="1" fill-rule="nonzero"/></g></g></g><g clip-path="url(#0e7a4d18f4)"><g clip-path="url(#a01eb284b8)"><g clip-path="url(#5f357f7771)"><path fill="#ffff00" d="M 443.183594 347.777344 L 454.105469 337.222656 C 454.667969 336.679688 454.980469 335.957031 454.996094 335.183594 C 455.015625 334.410156 454.710938 333.667969 454.1875 333.109375 L 448.917969 327.648438 L 416.585938 294.246094 L 410.121094 287.554688 L 404.847656 282.097656 C 404.308594 281.535156 403.582031 281.222656 402.8125 281.203125 C 402.371094 281.191406 401.933594 281.285156 401.535156 281.480469 L 388.347656 273.835938 C 387.886719 273.566406 387.296875 273.632812 386.90625 274.019531 L 382.253906 278.503906 C 382.046875 278.703125 381.921875 278.976562 381.894531 279.242188 C 381.871094 279.476562 381.90625 279.714844 382.027344 279.933594 L 389.226562 293.363281 C 389.070312 293.675781 388.96875 294.015625 388.933594 294.375 C 388.925781 294.453125 388.914062 294.542969 388.921875 294.625 C 388.90625 295.394531 389.207031 296.136719 389.730469 296.699219 L 395.003906 302.160156 L 401.453125 308.847656 L 433.800781 342.25 L 439.070312 347.710938 C 440.199219 348.855469 442.039062 348.890625 443.183594 347.777344 Z M 429.894531 334.753906 L 441.535156 323.5 L 446.335938 328.46875 L 434.691406 339.738281 Z M 404.050781 308.027344 L 415.695312 296.757812 L 439.882812 321.78125 L 428.242188 333.050781 Z M 397.582031 301.339844 L 409.226562 290.066406 L 414.027344 295.035156 L 402.382812 306.308594 Z M 384.589844 279.585938 L 387.941406 276.351562 L 399.609375 283.128906 L 390.972656 291.476562 Z M 391.46875 295.03125 C 391.339844 294.894531 391.324219 294.75 391.316406 294.667969 C 391.324219 294.589844 391.339844 294.433594 391.480469 294.308594 L 402.386719 283.75 C 402.527344 283.621094 402.671875 283.605469 402.75 283.597656 C 402.828125 283.605469 402.984375 283.621094 403.113281 283.761719 L 407.570312 288.363281 L 395.929688 299.632812 Z M 440.804688 346.046875 L 436.363281 341.445312 L 448.003906 330.175781 L 452.449219 334.773438 C 452.578125 334.914062 452.59375 335.058594 452.601562 335.136719 C 452.601562 335.15625 452.597656 335.167969 452.597656 335.183594 C 452.589844 335.261719 452.558594 335.386719 452.4375 335.5 L 441.53125 346.058594 C 441.390625 346.1875 441.25 346.203125 441.167969 346.210938 C 441.074219 346.199219 440.9375 346.167969 440.804688 346.046875 Z M 440.804688 346.046875 " fill-opacity="1" fill-rule="nonzero"/></g></g></g><g clip-path="url(#b9fa0df6a6)"><g clip-path="url(#4018eb0ded)"><g clip-path="url(#e51be65d35)"><path fill="#ffff00" d="M 430.324219 441.355469 L 439.175781 429.011719 C 439.632812 428.378906 439.808594 427.609375 439.6875 426.847656 C 439.566406 426.085938 439.136719 425.410156 438.519531 424.953125 L 432.359375 420.523438 L 394.566406 393.453125 L 387.003906 388.03125 L 380.84375 383.601562 C 380.210938 383.148438 379.441406 382.96875 378.675781 383.089844 C 378.242188 383.15625 377.828125 383.328125 377.472656 383.589844 L 363.128906 378.433594 C 362.625 378.25 362.054688 378.421875 361.742188 378.871094 L 357.96875 384.117188 C 357.800781 384.351562 357.726562 384.636719 357.746094 384.90625 C 357.765625 385.140625 357.84375 385.371094 358.003906 385.5625 L 367.492188 397.484375 C 367.390625 397.820312 367.355469 398.171875 367.382812 398.53125 C 367.386719 398.609375 367.394531 398.703125 367.417969 398.78125 C 367.539062 399.542969 367.96875 400.21875 368.585938 400.675781 L 374.75 405.101562 L 382.292969 410.527344 L 420.101562 437.597656 L 426.265625 442.027344 C 427.578125 442.949219 429.398438 442.652344 430.324219 441.355469 Z M 414.914062 430.921875 L 424.351562 417.765625 L 429.964844 421.792969 L 420.53125 434.96875 Z M 384.703125 409.257812 L 394.136719 396.085938 L 422.421875 416.367188 L 412.984375 429.542969 Z M 377.140625 403.835938 L 386.574219 390.660156 L 392.191406 394.691406 L 382.753906 407.863281 Z M 360.460938 384.761719 L 363.179688 380.980469 L 375.875 385.554688 L 368.871094 395.316406 Z M 369.996094 398.726562 C 369.84375 398.613281 369.804688 398.472656 369.78125 398.394531 C 369.777344 398.316406 369.761719 398.160156 369.878906 398.011719 L 378.714844 385.667969 C 378.832031 385.519531 378.96875 385.476562 379.046875 385.457031 C 379.125 385.449219 379.28125 385.4375 379.433594 385.550781 L 384.644531 389.28125 L 375.207031 402.453125 Z M 427.675781 440.074219 L 422.476562 436.347656 L 431.914062 423.171875 L 437.109375 426.902344 C 437.261719 427.015625 437.304688 427.15625 437.324219 427.230469 C 437.324219 427.246094 437.328125 427.261719 437.328125 427.277344 C 437.335938 427.355469 437.328125 427.484375 437.226562 427.617188 L 428.390625 439.957031 C 428.273438 440.109375 428.136719 440.152344 428.058594 440.171875 C 427.964844 440.179688 427.824219 440.175781 427.675781 440.074219 Z M 427.675781 440.074219 " fill-opacity="1" fill-rule="nonzero"/></g></g></g></svg>